<mxfile host="app.diagrams.net" modified="2024-05-15T18:57:58.085Z" agent="Mozilla/5.0 (Macintosh; Intel Mac OS X 10_15_7) AppleWebKit/537.36 (KHTML, like Gecko) Chrome/124.0.0.0 Safari/537.36" etag="PsExst6cyvJlChpBqT83" version="24.4.2" type="github">
  <diagram name="Page-1" id="JewU3NwJmn9LttvMLhaU">
    <mxGraphModel dx="1128" dy="802" grid="1" gridSize="10" guides="1" tooltips="1" connect="1" arrows="1" fold="1" page="1" pageScale="1" pageWidth="827" pageHeight="1169" math="0" shadow="0">
      <root>
        <mxCell id="0" />
        <mxCell id="1" parent="0" />
        <mxCell id="LPPV-buVI0izyfrd4_XA-11" value="" style="rounded=1;whiteSpace=wrap;html=1;" vertex="1" parent="1">
          <mxGeometry x="220" y="30" width="364" height="350" as="geometry" />
        </mxCell>
        <mxCell id="LPPV-buVI0izyfrd4_XA-4" value="Process Management" style="rounded=1;whiteSpace=wrap;html=1;" vertex="1" parent="1">
          <mxGeometry x="260" y="60" width="280" height="110" as="geometry" />
        </mxCell>
        <mxCell id="LPPV-buVI0izyfrd4_XA-5" value="&amp;nbsp; &amp;nbsp; &amp;nbsp; &amp;nbsp; &amp;nbsp; &amp;nbsp; &amp;nbsp; &amp;nbsp; &amp;nbsp; &amp;nbsp; &amp;nbsp; &amp;nbsp; &amp;nbsp; &amp;nbsp; &amp;nbsp; &amp;nbsp; &amp;nbsp; &amp;nbsp; &amp;nbsp; &amp;nbsp; &amp;nbsp; &amp;nbsp; inet http server&lt;div&gt;&amp;nbsp; &amp;nbsp; &amp;nbsp; &amp;nbsp; &amp;nbsp; &amp;nbsp; &amp;nbsp; &amp;nbsp; &amp;nbsp; &amp;nbsp; &amp;nbsp; &amp;nbsp; &amp;nbsp; &amp;nbsp; &amp;nbsp; &amp;nbsp; &amp;nbsp; &amp;nbsp; &amp;nbsp; &amp;nbsp; &amp;nbsp;tcp:9001&lt;/div&gt;" style="rounded=1;whiteSpace=wrap;html=1;" vertex="1" parent="1">
          <mxGeometry x="265" y="190" width="270" height="160" as="geometry" />
        </mxCell>
        <mxCell id="LPPV-buVI0izyfrd4_XA-6" value="XML RPC&amp;nbsp;&lt;div&gt;Endpoint&lt;/div&gt;&lt;div&gt;/RPC2&lt;/div&gt;" style="rounded=1;whiteSpace=wrap;html=1;" vertex="1" parent="1">
          <mxGeometry x="290" y="210" width="130" height="120" as="geometry" />
        </mxCell>
        <mxCell id="LPPV-buVI0izyfrd4_XA-7" value="" style="rounded=1;whiteSpace=wrap;html=1;" vertex="1" parent="1">
          <mxGeometry x="194" y="450" width="440" height="390" as="geometry" />
        </mxCell>
        <mxCell id="LPPV-buVI0izyfrd4_XA-8" value="http tcp:9101 server" style="rounded=1;whiteSpace=wrap;html=1;" vertex="1" parent="1">
          <mxGeometry x="244" y="740" width="340" height="60" as="geometry" />
        </mxCell>
        <mxCell id="LPPV-buVI0izyfrd4_XA-9" value="XML RPC Interface Client" style="rounded=1;whiteSpace=wrap;html=1;" vertex="1" parent="1">
          <mxGeometry x="249" y="490" width="330" height="100" as="geometry" />
        </mxCell>
        <mxCell id="LPPV-buVI0izyfrd4_XA-10" value="Data to gauge metric encode&amp;nbsp;" style="rounded=1;whiteSpace=wrap;html=1;" vertex="1" parent="1">
          <mxGeometry x="249" y="615" width="330" height="85" as="geometry" />
        </mxCell>
        <mxCell id="LPPV-buVI0izyfrd4_XA-12" value="" style="shape=flexArrow;endArrow=classic;html=1;rounded=0;" edge="1" parent="1">
          <mxGeometry width="50" height="50" relative="1" as="geometry">
            <mxPoint x="370" y="440" as="sourcePoint" />
            <mxPoint x="370" y="390" as="targetPoint" />
          </mxGeometry>
        </mxCell>
        <mxCell id="LPPV-buVI0izyfrd4_XA-13" value="" style="shape=flexArrow;endArrow=classic;html=1;rounded=0;" edge="1" parent="1">
          <mxGeometry width="50" height="50" relative="1" as="geometry">
            <mxPoint x="440" y="390" as="sourcePoint" />
            <mxPoint x="440" y="440" as="targetPoint" />
          </mxGeometry>
        </mxCell>
        <mxCell id="LPPV-buVI0izyfrd4_XA-16" value="" style="shape=flexArrow;endArrow=classic;html=1;rounded=0;" edge="1" parent="1">
          <mxGeometry width="50" height="50" relative="1" as="geometry">
            <mxPoint x="480" y="860" as="sourcePoint" />
            <mxPoint x="480" y="920" as="targetPoint" />
          </mxGeometry>
        </mxCell>
        <mxCell id="LPPV-buVI0izyfrd4_XA-17" value="" style="shape=flexArrow;endArrow=classic;html=1;rounded=0;" edge="1" parent="1">
          <mxGeometry width="50" height="50" relative="1" as="geometry">
            <mxPoint x="360" y="920" as="sourcePoint" />
            <mxPoint x="360" y="860" as="targetPoint" />
          </mxGeometry>
        </mxCell>
      </root>
    </mxGraphModel>
  </diagram>
</mxfile>
